<svg id="Group_363" data-name="Group 363" xmlns="http://www.w3.org/2000/svg" viewBox="6764 -3345 103 102">
  <defs>
    <style>
      .cls-1, .cls-4 {
        fill: #9e9e9e;
      }

      .cls-2, .cls-6 {
        fill: none;
      }

      .cls-2 {
        stroke: rgba(158,158,158,0);
      }

      .cls-3 {
        fill: #323638;
      }

      .cls-4 {
        font-size: 12px;
        font-family: Roboto-Regular, Roboto;
      }

      .cls-5 {
        stroke: none;
      }
    </style>
  </defs>
  <g id="Group_362" data-name="Group 362">
    <path id="Subtraction_9" data-name="Subtraction 9" class="cls-1" d="M15.516,41.152A6.044,6.044,0,0,1,10.81,38.88L1.37,27.222A5.91,5.91,0,0,1,2.1,18.908L23.9,1.259A5.633,5.633,0,0,1,27.478,0a6.045,6.045,0,0,1,4.705,2.271l9.44,11.657a5.912,5.912,0,0,1-.734,8.315L19.1,39.891A5.63,5.63,0,0,1,15.516,41.152Zm4.128-10.632a.49.49,0,0,0-.308.109l-6.286,5.09a.491.491,0,0,0,.617.763l6.286-5.091a.491.491,0,0,0-.309-.872Zm4.869-11.126a.494.494,0,0,0-.308.11L9.536,31.381a.49.49,0,0,0-.072.69l1.357,1.677a.49.49,0,0,0,.69.072L26.18,21.942a.484.484,0,0,0,.179-.329.49.49,0,0,0-.106-.36l-1.358-1.677A.489.489,0,0,0,24.512,19.393Zm.348,6.9a.49.49,0,0,0-.308.109l-1.571,1.273a.491.491,0,0,0,.309.872.485.485,0,0,0,.309-.11l1.571-1.272a.491.491,0,0,0-.309-.873Zm3.018-2.444a.49.49,0,0,0-.308.109L26,25.232a.491.491,0,0,0,.617.763l1.571-1.273a.491.491,0,0,0-.309-.873ZM23.871,7.075A3.332,3.332,0,0,0,21.293,12.5,3.33,3.33,0,0,0,27.2,10.649a3.207,3.207,0,0,0,.463.032,3.329,3.329,0,0,0,3.3-2.983,3.328,3.328,0,1,0-6.629-.592A3.394,3.394,0,0,0,23.871,7.075ZM11.276,32.748v0h0l-.74-.912,13.906-11.26.74.913ZM23.882,12.9A2.494,2.494,0,0,1,22.31,8.465a2.456,2.456,0,0,1,1.563-.557,2.563,2.563,0,0,1,.6.073.48.48,0,0,0,.1.013h.02a.4.4,0,0,0,.152.029.266.266,0,0,0,.038,0,.415.415,0,0,0,.38-.451A2.495,2.495,0,1,1,29.222,9.29a2.457,2.457,0,0,1-1.562.557,2.53,2.53,0,0,1-.616-.076.388.388,0,0,0-.1-.012h-.02a.411.411,0,0,0-.142-.024h-.038a.416.416,0,0,0-.379.451A2.495,2.495,0,0,1,23.882,12.9Z" transform="translate(6802.327 -3323.616)"/>
    <g id="Group_330" data-name="Group 330" transform="translate(1911 -1798)">
      <g id="Rectangle_168" data-name="Rectangle 168" class="cls-2" transform="translate(4853 -1547)">
        <rect class="cls-5" width="103" height="102" rx="4"/>
        <rect class="cls-6" x="0.5" y="0.5" width="102" height="101" rx="3.5"/>
      </g>
      <g id="Group_327" data-name="Group 327" transform="translate(3 -4)">
        <g id="card_visa_mastercard_credit_payment_credit_card_creditcard_svg_icon" data-name="card, visa, mastercard, credit, payment, credit card, creditcard svg icon" transform="translate(4844.898 -1512.361) rotate(-39)">
          <g id="Group_324" data-name="Group 324" transform="translate(18.507 18.499)">
            <g id="Group_322" data-name="Group 322" transform="translate(0 0)">
              <g id="Group_319" data-name="Group 319">
                <path id="Path_98" data-name="Path 98" class="cls-1" d="M21.6,40l-.49-1.585,1.265-.391a7.329,7.329,0,0,1,.968-1.315l-2.52.778-1.162-3.762c-.005-.017-.008-.035-.013-.053L55.82,22.5c.005.017.013.033.018.051L57,26.311,30.965,34.355h3.289l23.032-7.115,2.266,7.334a7.246,7.246,0,0,1,1.131.372l-2.612-8.456h0l-1.3-4.225c-.044-.143-.094-.284-.149-.421a.357.357,0,0,0-.127-.284,5.33,5.33,0,0,0-6.4-2.821l-27.825,8.6a5.342,5.342,0,0,0-3.692,5.931.472.472,0,0,0,.007.231.48.48,0,0,0,.058.117c.03.133.06.266.1.4l2.673,8.653V41.635A7.315,7.315,0,0,1,21.6,40Zm.946-11.737,27.824-8.595a4.364,4.364,0,0,1,5.045,1.941l-35.935,11.1A4.371,4.371,0,0,1,22.551,28.261Z" transform="translate(-18.507 -18.499)"/>
              </g>
              <g id="Group_320" data-name="Group 320" transform="translate(30.729 15.837)">
                <path id="Path_99" data-name="Path 99" class="cls-3" d="M81.127,50.787h.257A.485.485,0,0,0,81.127,50.787Z" transform="translate(-81.123 -50.771)"/>
              </g>
              <g id="Group_321" data-name="Group 321" transform="translate(32.993 13.756)">
                <path id="Path_100" data-name="Path 100" class="cls-1" d="M86.829,48.609l3.195-.987.311,1.008H91.35l-.543-1.757a.485.485,0,0,0-.607-.321l-4.122,1.273a.485.485,0,0,0-.32.607l.061.2h1.016Z" transform="translate(-85.737 -46.53)"/>
              </g>
            </g>
          </g>
        </g>
        <text id="Messages" class="cls-4" transform="translate(4872 -1458)"><tspan x="0" y="0">Credit Card</tspan></text>
      </g>
    </g>
  </g>
</svg>
