<svg id="Group_459" data-name="Group 459" xmlns="http://www.w3.org/2000/svg" viewBox="-271.519 2020.471 52.9 52.9">
  <defs>
    <style>
      .cls-1 {
        fill: #fff;
      }

      .cls-2, .cls-4 {
        fill: none;
      }

      .cls-2 {
        stroke: rgba(112,112,112,0);
      }

      .cls-3 {
        stroke: none;
      }
    </style>
  </defs>
  <path id="Subtraction_1" data-name="Subtraction 1" class="cls-1" d="M-166.495-655.675v0l2.168-7.867a23.31,23.31,0,0,1-6.37-7.965,23.042,23.042,0,0,1-2.3-9.9,23.886,23.886,0,0,1,7.354-16.725A24.416,24.416,0,0,1-148.6-705c.181,0,.357,0,.537.006s.359-.006.537-.006a24.415,24.415,0,0,1,17.046,6.868,23.887,23.887,0,0,1,7.353,16.725,23.884,23.884,0,0,1-7.353,16.724,24.418,24.418,0,0,1-17.045,6.869c-.181,0-.357,0-.537-.006h-.016a25.954,25.954,0,0,1-9.742-1.887l-8.671,4.03Zm14.095-25.732h0l7.589,6.432,13.01-12.865-11.926,6.433-7.59-6.433-13.01,12.865,11.925-6.432Z" transform="translate(-96.876 2727.135)"/>
  <g id="Rectangle_187" data-name="Rectangle 187" class="cls-2" transform="matrix(1, 0.017, -0.017, 1, -270.611, 2020.471)">
    <rect class="cls-3" width="52" height="52"/>
    <rect class="cls-4" x="0.5" y="0.5" width="51" height="51"/>
  </g>
</svg>
