<svg id="Group_487" data-name="Group 487" xmlns="http://www.w3.org/2000/svg" viewBox="1606 172 48 53">
  <defs>
    <style>
      .cls-1 {
        opacity: 0.54;
      }

      .cls-2, .cls-4 {
        fill: none;
      }

      .cls-2 {
        stroke: rgba(112,112,112,0.36);
        opacity: 0;
      }

      .cls-3 {
        stroke: none;
      }
    </style>
  </defs>
  <path id="Path_122" data-name="Path 122" class="cls-1" d="M23.876,34.359a8.056,8.056,0,0,0,8.063-8.09l.027-16.179a8.09,8.09,0,1,0-16.179,0V26.269A8.079,8.079,0,0,0,23.876,34.359Zm14.292-8.09c0,8.09-6.849,13.752-14.292,13.752S9.584,34.359,9.584,26.269H5c0,9.2,7.335,16.8,16.179,18.121v8.845h5.393V44.39c8.845-1.294,16.179-8.9,16.179-18.121Z" transform="translate(1606 171)"/>
  <g id="Rectangle_201" data-name="Rectangle 201" class="cls-2" transform="translate(1606 172)">
    <rect class="cls-3" width="48" height="53"/>
    <rect class="cls-4" x="0.5" y="0.5" width="47" height="52"/>
  </g>
</svg>
