<svg xmlns="http://www.w3.org/2000/svg" viewBox="6591 -3189 103 102">
  <defs>
    <style>
      .cls-1, .cls-5 {
        fill: none;
      }

      .cls-1, .cls-2 {
        stroke: #2196f3;
      }

      .cls-2, .cls-3 {
        fill: #2196f3;
      }

      .cls-3 {
        font-size: 12px;
        font-family: Roboto-Regular, Roboto;
      }

      .cls-4 {
        stroke: none;
      }
    </style>
  </defs>
  <g id="Group_346" data-name="Group 346" transform="translate(772 336)">
    <g id="Group_328" data-name="Group 328" transform="translate(845 -1978.618)">
      <g id="_66a7bb0bfc7f4f952d518528c1c7e024" data-name="66a7bb0bfc7f4f952d518528c1c7e024" transform="translate(4967.892 -1542.382)">
        <g id="Group_326" data-name="Group 326" transform="translate(37.108 10)">
          <g id="Group_325" data-name="Group 325" transform="translate(0 0)">
            <path id="Path_110" data-name="Path 110" class="cls-1" d="M191.127,209.571a8.633,8.633,0,0,0-1.406-1.371,15.616,15.616,0,0,1-.366,4.152,16.749,16.749,0,0,1-16.795,13.573h-5.986L164.634,235a3.9,3.9,0,0,1-3.8,3.072h-2.7l-.485,2.23a1.939,1.939,0,0,0,1.9,2.354h6.595a1.939,1.939,0,0,0,1.9-1.538l2.266-10.615h7.556a14.808,14.808,0,0,0,14.9-12.034C193.538,214.869,192.987,211.872,191.127,209.571Z" transform="translate(-152.296 -199.463)"/>
            <path id="Path_111" data-name="Path 111" class="cls-2" d="M47.546,45.133l2.266-10.615h7.556a15.165,15.165,0,0,0,9.658-3.288,15.074,15.074,0,0,0,5.237-8.746c.771-3.61.22-6.6-1.64-8.9A10.376,10.376,0,0,0,62.657,10H46.193a1.947,1.947,0,0,0-1.9,1.53L37.152,44.317a1.939,1.939,0,0,0,1.9,2.354h6.595A1.941,1.941,0,0,0,47.546,45.133Zm6.048-27.665h5.18a3.7,3.7,0,0,1,2.989,1.4,4.123,4.123,0,0,1,.582,3.588l-.013.053a6.638,6.638,0,0,1-6.039,4.99H51.328Z" transform="translate(-37.108 -10)"/>
          </g>
        </g>
      </g>
      <text id="Messages" class="cls-3" transform="translate(5005 -1462)"><tspan x="0" y="0">Pay Pal</tspan></text>
    </g>
    <g id="Rectangle_171" data-name="Rectangle 171" class="cls-1" transform="translate(5819 -3525)">
      <rect class="cls-4" width="103" height="102" rx="4"/>
      <rect class="cls-5" x="0.5" y="0.5" width="102" height="101" rx="3.5"/>
    </g>
  </g>
</svg>
