<svg id="Group_458" data-name="Group 458" xmlns="http://www.w3.org/2000/svg" viewBox="-200.519 2022.471 52.9 52.9">
  <defs>
    <style>
      .cls-1 {
        fill: #fff;
      }

      .cls-2, .cls-4 {
        fill: none;
      }

      .cls-2 {
        stroke: rgba(112,112,112,0);
      }

      .cls-3 {
        stroke: none;
      }
    </style>
  </defs>
  <g id="twiter" transform="translate(-198.879 2023.851)">
    <path id="Path_127" data-name="Path 127" class="cls-1" d="M24.812,0A25,25,0,1,0,49.624,25,24.907,24.907,0,0,0,24.812,0ZM39.071,17.631q.021.477.021.959c0,9.8-7.4,21.092-20.933,21.092A20.711,20.711,0,0,1,6.881,36.352a14.765,14.765,0,0,0,10.892-3.07A7.372,7.372,0,0,1,10.9,28.134a7.323,7.323,0,0,0,3.323-.127,7.4,7.4,0,0,1-5.9-7.269c0-.031,0-.062,0-.093a7.286,7.286,0,0,0,3.332.927,7.458,7.458,0,0,1-2.277-9.9A20.836,20.836,0,0,0,24.542,19.42a7.5,7.5,0,0,1-.19-1.69,7.349,7.349,0,0,1,12.727-5.072,14.668,14.668,0,0,0,4.672-1.8,7.425,7.425,0,0,1-3.235,4.1,14.625,14.625,0,0,0,4.226-1.167A15.01,15.01,0,0,1,39.071,17.631Z" transform="translate(0 0)"/>
  </g>
  <g id="Rectangle_188" data-name="Rectangle 188" class="cls-2" transform="matrix(1, 0.017, -0.017, 1, -199.611, 2022.471)">
    <rect class="cls-3" width="52" height="52"/>
    <rect class="cls-4" x="0.5" y="0.5" width="51" height="51"/>
  </g>
</svg>
